# xmcd
#
# Track frame offsets: 
#        150
#        12485
#        20672
#        26660
#        33972
#        36397
#        39915
#        48905
#        80690
#        84727
#        97797
#        103942
#        112047
#        120462
#        129377
#        137160
#        147790
#        153802
#        156782
#        166055
#
# Disc length: 2354 seconds
#
# Revision: 0
# Processed by: cddbd v1.4PL0 Copyright (c) Steve Scherf et al.
# Submitted via: ExactAudioCopy v0.90a11
#
DISCID=fb093014
DTITLE=Jerry Clower - Clower Power
DYEAR=1900
DGENRE=
TTITLE0=Second Down And Goal To Go
TTITLE1=Ole Brumey Wasn't Runnin' A Coon
TTITLE2=The Public School Music Class Learns A Song
TTITLE3=I'm That Country
TTITLE4=Marcel Says No School Today
TTITLE5=Peanut Boilin' Was Required
TTITLE6=Life At Route Four-Liberty Mississippi
TTITLE7=How To Back Into Show Business
TTITLE8=Three Footballs In A Game Ain't Fair
TTITLE9=All About Clovis Ledbetter
TTITLE10=Marcel Wins A Bet
TTITLE11=The Ole Timey Ice Box
TTITLE12=Uncle Virsi Ledbetter
TTITLE13=Brother Sonny Goes To Church
TTITLE14=My Mama Made Biscuits
TTITLE15=The Flying Jenny
TTITLE16=King Solomon Said
TTITLE17=Signaling For A Fair Catch
TTITLE18=Little Katy Learns A Lesson
TTITLE19=What Christmas Means To Me
EXTD=
EXTT0=
EXTT1=
EXTT2=
EXTT3=
EXTT4=
EXTT5=
EXTT6=
EXTT7=
EXTT8=
EXTT9=
EXTT10=
EXTT11=
EXTT12=
EXTT13=
EXTT14=
EXTT15=
EXTT16=
EXTT17=
EXTT18=
EXTT19=
PLAYORDER=
